<svg width="390" height="149" viewBox="0 0 390 149" fill="none" xmlns="http://www.w3.org/2000/svg">
<path d="M334.815 148.705L376.265 55.6317H389.323L348.784 148.705H334.815ZM350.302 118.946L320.087 55.6317H336.03L361.386 111.81L350.302 118.946Z" fill="black"/>
<path d="M275.762 120.009C269.891 120.009 264.526 118.743 259.668 116.213C254.91 113.682 251.114 109.988 248.28 105.129C245.547 100.169 244.181 94.1465 244.181 87.061C244.181 80.0767 245.648 74.054 248.584 68.993C251.519 63.8307 255.416 59.883 260.275 57.15C265.235 54.4171 270.65 53.0506 276.521 53.0506C282.392 53.0506 287.352 54.4171 291.401 57.15C295.449 59.7818 298.537 62.9197 300.662 66.5636L299.751 68.993L301.118 55.6317H314.175V118.49H300.055V102.092L301.573 105.736C301.168 106.749 300.257 108.064 298.84 109.684C297.524 111.202 295.702 112.771 293.374 114.391C291.147 116.01 288.566 117.377 285.631 118.49C282.695 119.502 279.406 120.009 275.762 120.009ZM279.558 108.318C283.1 108.318 286.289 107.66 289.123 106.344C291.957 105.028 294.285 103.206 296.107 100.878C298.031 98.4484 299.346 95.5636 300.055 92.2233V79.9249C299.245 76.8882 297.828 74.2565 295.804 72.0296C293.779 69.7015 291.35 67.9301 288.516 66.7155C285.681 65.3996 282.544 64.7417 279.102 64.7417C275.357 64.7417 271.915 65.6526 268.777 67.4746C265.64 69.2966 263.109 71.8272 261.186 75.0662C259.364 78.3053 258.453 82.1011 258.453 86.4537C258.453 90.5025 259.414 94.1971 261.338 97.5374C263.261 100.878 265.842 103.509 269.081 105.433C272.32 107.356 275.812 108.318 279.558 108.318Z" fill="black"/>
<path d="M184.175 118.49V0.972137H198.295V118.49H184.175ZM213.479 76.7364L242.327 118.49H225.777L204.065 84.6317L213.479 76.7364ZM193.892 98.4485L192.526 84.9354L230.636 54.2653L239.29 61.705L193.892 98.4485Z" fill="black"/>
<path d="M149.067 119.705C144.614 119.705 140.261 118.946 136.01 117.428C131.86 115.808 128.418 113.429 125.685 110.291L131.607 102.092C134.238 104.623 136.921 106.546 139.654 107.862C142.488 109.077 145.271 109.684 148.004 109.684C150.029 109.684 151.901 109.431 153.622 108.925C155.343 108.419 156.71 107.609 157.722 106.496C158.835 105.281 159.392 103.661 159.392 101.637C159.392 99.4101 158.633 97.6387 157.114 96.3228C155.697 95.007 153.825 93.9441 151.497 93.1344C149.27 92.3246 146.891 91.5654 144.36 90.8569C139.198 89.1361 135.251 86.7574 132.518 83.7208C129.785 80.6841 128.418 76.9895 128.418 72.637C128.418 69.2967 129.228 66.2094 130.847 63.3752C132.568 60.4398 135.048 58.0611 138.287 56.2391C141.628 54.4171 145.727 53.5061 150.586 53.5061C154.938 53.5061 158.835 54.0629 162.277 55.1763C165.718 56.1885 168.957 57.9093 171.994 60.3386L166.376 69.1449C164.554 67.2217 162.378 65.8045 159.847 64.8936C157.317 63.9826 155.039 63.4765 153.015 63.3752C151.294 63.274 149.624 63.5271 148.004 64.1344C146.486 64.7417 145.221 65.6021 144.209 66.7155C143.196 67.829 142.69 69.1449 142.69 70.6632C142.69 72.7888 143.399 74.5096 144.816 75.8255C146.233 77.1414 148.055 78.2042 150.282 79.014C152.61 79.7225 154.888 80.4817 157.114 81.2914C160.252 82.2024 163.036 83.4171 165.465 84.9354C167.894 86.4537 169.818 88.3263 171.235 90.5532C172.753 92.7801 173.512 95.5637 173.512 98.904C173.512 102.649 172.601 106.141 170.779 109.38C169.059 112.518 166.376 115.049 162.732 116.972C159.189 118.794 154.634 119.705 149.067 119.705Z" fill="black"/>
<path d="M102.014 55.6317H116.134V118.49H102.014V55.6317ZM100.951 32.8569C100.951 30.63 101.811 28.7574 103.532 27.2391C105.354 25.7208 107.328 24.9616 109.453 24.9616C111.579 24.9616 113.452 25.7208 115.071 27.2391C116.792 28.7574 117.652 30.63 117.652 32.8569C117.652 35.185 116.792 37.1082 115.071 38.6265C113.452 40.0436 111.579 40.7522 109.453 40.7522C107.328 40.7522 105.354 39.993 103.532 38.4747C101.811 36.9564 100.951 35.0838 100.951 32.8569Z" fill="black"/>
<path d="M66.64 55.6318L68.0065 73.8517L67.2474 71.4224C68.8669 67.576 71.195 64.3369 74.2317 61.7051C77.3695 58.9721 80.6086 56.8971 83.9489 55.48C87.3904 53.9617 90.3765 53.2025 92.907 53.2025L92.1479 67.1711C87.3904 66.8674 83.1898 67.7784 79.5458 69.9041C76.003 72.0297 73.1688 74.8639 71.0432 78.4067C69.0187 81.9494 68.0065 85.7452 68.0065 89.7941V118.49H54.038V55.6318H66.64Z" fill="black"/>
<path d="M10.7801 118.49V68.2338H0V55.6318H10.7801V29.0611C10.7801 19.9512 12.8045 12.9669 16.8534 8.10826C21.0035 3.24963 27.0768 0.820312 35.0732 0.820312C37.1989 0.820312 39.527 1.12398 42.0575 1.7313C44.6893 2.33864 46.9668 3.35085 48.89 4.76795L42.9685 14.9407C42.0575 14.0297 41.0453 13.4224 39.9319 13.1187C38.8184 12.7138 37.705 12.5114 36.5916 12.5114C32.8464 12.5114 29.9616 13.7767 27.9371 16.3072C25.9127 18.8377 24.9005 23.1397 24.9005 29.213V55.6318H44.7905V68.2338H24.9005V118.49H10.7801Z" fill="black"/>
</svg>